<svg xmlns="http://www.w3.org/2000/svg" width="1908.303" height="1610.22" viewBox="0 0 1908.303 1610.22"><defs><style>.a{opacity:0.89;}.b{fill:#f4f7fe;opacity:0.575;}</style></defs><g transform="translate(238.593 41.133)"><g class="a" transform="translate(-5.984 -20.843)"><path class="b" d="M425.408,522.58c0-36.1-3.94-70.141-11.9-99.629-18.51-68.614-47.7-103.2-68.917-120.128-36.374-29.014-71.062-35.548-97.677-18.4-28.406,18.3-38.445,56.186-49.076,96.3-9.688,36.55-19.7,74.345-44.615,98.3-22.446,21.586-44.378,9.778-67.6-2.721-23.01-12.387-46.8-25.194-73.077-6.329C-15.351,490.012-38.07,536.52-40.3,578.16c-1.622,30.362,6.759,66.956,24.251,105.858A411.724,411.724,0,0,0,54.719,791.3c78.187,85.649,166.147,110.157,235.3,65.556,50.15-32.348,92.56-102.14,116.351-191.483A562.888,562.888,0,0,0,425.408,522.58Z" transform="translate(-192.11 576.656)"/><path class="b" d="M665.788,259.572c0-36.1-3.943-70.141-11.9-99.629-18.513-68.614-47.7-103.2-68.92-120.128C548.6,10.8,513.909,4.265,487.293,21.415c-28.4,18.3-38.445,56.189-49.076,96.3-9.688,36.55-19.7,74.345-44.615,98.3-22.446,21.586-44.376,9.78-67.6-2.719-23.01-12.387-46.8-25.2-73.08-6.329-27.9,20.032-50.619,66.541-52.849,108.181-1.622,30.362,6.759,66.956,24.251,105.858A411.717,411.717,0,0,0,295.1,528.289c78.187,85.65,166.147,110.157,235.3,65.556C580.547,561.5,622.956,491.7,646.748,402.363A563.015,563.015,0,0,0,665.788,259.572Z" transform="translate(318.674 974.221)"/><path class="b" d="M834.961,386.256c0-36.1-3.94-70.141-11.9-99.631-18.513-68.612-47.7-103.2-68.917-120.128-36.374-29.014-71.062-35.548-97.68-18.4-28.4,18.3-38.443,56.186-49.073,96.3-9.687,36.55-19.7,74.347-44.615,98.305-22.446,21.586-44.378,9.778-67.6-2.721-23.01-12.384-46.8-25.194-73.08-6.327-27.9,20.032-50.619,66.538-52.849,108.181-1.619,30.36,6.761,66.953,24.253,105.855a411.719,411.719,0,0,0,70.769,107.279c78.185,85.65,166.148,110.159,235.294,65.556,50.153-32.346,92.562-102.14,116.354-191.483A562.875,562.875,0,0,0,834.961,386.256Z" transform="translate(840.734 -159.017)"/><path class="b" d="M417.471,199.693c0-36.1-3.942-70.141-11.9-99.631-18.513-68.612-47.7-103.2-68.92-120.128-36.371-29.014-71.062-35.548-97.677-18.4-28.4,18.3-38.445,56.189-49.076,96.3-9.688,36.55-19.7,74.345-44.615,98.3-22.443,21.586-44.376,9.778-67.6-2.721-23.01-12.384-46.8-25.194-73.08-6.326-27.9,20.032-50.619,66.541-52.849,108.181-1.619,30.362,6.761,66.956,24.253,105.858A411.649,411.649,0,0,0,46.78,468.411c78.187,85.65,166.15,110.157,235.3,65.556,50.153-32.348,92.562-102.142,116.354-191.485A562.869,562.869,0,0,0,417.471,199.693Z" transform="translate(-121.563 79.228)"/></g></g></svg>