<svg xmlns="http://www.w3.org/2000/svg" width="35" height="29.614" viewBox="0 0 35 29.614"><defs><style>.a{opacity:0.81;}.b,.c{fill:#c4c4c4;}.c{opacity:0.66;}</style></defs><g class="a"><path class="b" d="M154.19,190.47h-6.728a.455.455,0,0,1,0-.91h6.728a.455.455,0,0,1,0,.91Z" transform="translate(-124.9 -178.639)"/><path class="b" d="M154.19,214.843h-6.728a.455.455,0,1,1,0-.91h6.728a.455.455,0,1,1,0,.91Z" transform="translate(-124.9 -194.164)"/><path class="b" d="M114.394,189.093H81.374a.991.991,0,0,1-.99-.99V160.469a.991.991,0,0,1,.99-.99h33.019a.991.991,0,0,1,.99.99V188.1A.991.991,0,0,1,114.394,189.093ZM81.374,160.21a.26.26,0,0,0-.26.26V188.1a.26.26,0,0,0,.26.26h33.019a.26.26,0,0,0,.26-.26V160.469a.26.26,0,0,0-.26-.26Z" transform="translate(-80.384 -159.479)"/><path class="c" d="M114.394,189.093H81.374a.991.991,0,0,1-.99-.99V160.469a.991.991,0,0,1,.99-.99h33.019a.991.991,0,0,1,.99.99V188.1A.991.991,0,0,1,114.394,189.093ZM81.374,160.21a.26.26,0,0,0-.26.26V188.1a.26.26,0,0,0,.26.26h33.019a.26.26,0,0,0,.26-.26V160.469a.26.26,0,0,0-.26-.26Z" transform="translate(-80.384 -159.479)"/><path class="b" d="M115.368,178.641H91.654c-.186,0-.337-.2-.337-.455s.151-.455.337-.455h23.715c.186,0,.336.2.336.455S115.554,178.641,115.368,178.641Z" transform="translate(-86.344 -171.105)"/><path class="b" d="M115.368,202.3H91.654c-.186,0-.337-.2-.337-.455s.151-.455.337-.455h23.715c.186,0,.336.2.336.455S115.554,202.3,115.368,202.3Z" transform="translate(-86.344 -186.173)"/><path class="b" d="M109.057,190.47H91.772a.455.455,0,0,1,0-.91h17.285a.455.455,0,0,1,0,.91Z" transform="translate(-86.344 -178.639)"/><path class="b" d="M109.057,214.843H91.772a.455.455,0,0,1,0-.91h17.285a.455.455,0,1,1,0,.91Z" transform="translate(-86.344 -194.164)"/><path class="b" d="M103.428,226.134H91.772a.455.455,0,0,1,0-.91h11.657a.455.455,0,0,1,0,.91Z" transform="translate(-86.344 -201.669)"/></g></svg>