<svg xmlns="http://www.w3.org/2000/svg" width="678.576" height="528.222" viewBox="0 0 678.576 528.222"><defs><style>.a{opacity:0.41;}.b{fill:#c3d7ff;}.c{fill:#ecf1f7;}.d{fill:#2845a7;}.e{fill:#2d9ced;}.f,.l{fill:#fff;}.g{fill:#c5d9ff;opacity:0.43;}.h{opacity:0.26;}.i{fill:#243762;}.j{fill:#272d3b;}.k{fill:#f7a9b4;}.l{opacity:0.25;}</style></defs><g transform="translate(-221.182 -91.975)"><g transform="translate(155.093 91.975)"><g class="a" transform="translate(66.089)"><path class="b" d="M848.4,469.823c3.749-83.693-37.684-155.577-100.223-196.083a46.6,46.6,0,0,1-20.88-33.974c-.084-.751-.172-1.5-.265-2.257-11.469-91.889-97.352-156.447-188.831-144-87.5,11.906-150.493,58.145-141.193,147.19.044.42.093,1.029.146,1.8a42.527,42.527,0,0,1-41.659,45.245q-7.625.179-15.351.98c-104.392,10.908-180.118,104.723-169,209.464A189.883,189.883,0,0,0,231.86,618.342H776.025C817.392,578.759,845.979,523.843,848.4,469.823Z" transform="translate(-170.058 -91.975)"/></g><g transform="translate(116.015 77.454)"><path class="b" d="M759.887,431.759c3.2-71.376-32.142-132.678-85.477-167.227A39.738,39.738,0,0,1,656.6,235.557c-.071-.64-.146-1.281-.225-1.926-9.782-78.367-83.03-133.425-161.048-122.808-74.626,10.153-128.346,49.59-120.414,125.528.04.358.079.879.124,1.537a36.265,36.265,0,0,1-35.529,38.585q-6.505.152-13.09.839c-89.032,9.305-153.616,89.315-144.134,178.638a161.939,161.939,0,0,0,51.781,102.475h464.1C733.442,524.669,757.825,477.834,759.887,431.759Z" transform="translate(-181.363 -109.513)"/></g></g><g transform="translate(290.598 254.189)"><g transform="translate(58.745)"><path class="c" d="M646.987,438H199.34V138.052a9.085,9.085,0,0,1,9.084-9.084H637.9a9.086,9.086,0,0,1,9.089,9.084Z" transform="translate(-198.183 -127.811)"/><path class="d" d="M649.039,440.049H199.078v-301.1a10.255,10.255,0,0,1,10.241-10.246H638.793a10.259,10.259,0,0,1,10.246,10.246Zm-447.647-2.314H646.725V138.952a7.94,7.94,0,0,0-7.932-7.932H209.319a7.939,7.939,0,0,0-7.927,7.932Z" transform="translate(-199.078 -128.706)"/></g><g transform="translate(253.834 291.942)"><rect class="c" width="57.469" height="4.597" transform="translate(1.157 1.159)"/><path class="d" d="M303.036,201.728H243.253v-6.916h59.783Zm-57.469-2.319h55.155v-2.279H245.567Z" transform="translate(-243.253 -194.812)"/></g><g transform="translate(279.073 9.46)"><path class="c" d="M256.213,134.427a3.5,3.5,0,1,1-3.493-3.317A3.41,3.41,0,0,1,256.213,134.427Z" transform="translate(-248.07 -129.953)"/><path class="d" d="M253.618,139.8a4.477,4.477,0,1,1,4.655-4.474A4.573,4.573,0,0,1,253.618,139.8Zm0-6.633a2.166,2.166,0,1,0,2.336,2.16A2.253,2.253,0,0,0,253.618,133.162Z" transform="translate(-248.968 -130.848)"/></g><g transform="translate(0 342.919)"><path class="e" d="M739.848,226.985H196.708c-5.891,0-10.67-3.193-10.67-7.128V208.626c0-1.113,1.347-2.009,3.007-2.009H747.978c1.661,0,3.008.9,3.008,2.009v10.921C750.986,223.655,746,226.985,739.848,226.985Z" transform="translate(-184.881 -205.46)"/><path class="d" d="M740.743,229.037H197.6c-6.633,0-11.827-3.639-11.827-8.285V209.521c0-1.78,1.828-3.166,4.165-3.166H748.873c2.336,0,4.165,1.387,4.165,3.166v10.921C753.038,225.261,747.637,229.037,740.743,229.037Zm-550.8-20.368c-1.148,0-1.85.552-1.85.852v11.231c0,3.237,4.354,5.971,9.513,5.971h543.14c5.41,0,9.981-2.875,9.981-6.28V209.521c0-.3-.7-.852-1.851-.852Z" transform="translate(-185.776 -206.355)"/></g><g transform="translate(78.583 24.585)"><rect class="f" width="408.075" height="261.291" rx="10" transform="translate(1.105 1.105)"/><path class="d" d="M602.806,397.775H214.62a11.066,11.066,0,0,1-11.05-11.054v-241.4a11.063,11.063,0,0,1,11.05-11.05H602.806a11.06,11.06,0,0,1,11.049,11.05v241.4A11.064,11.064,0,0,1,602.806,397.775ZM214.62,136.481a8.851,8.851,0,0,0-8.841,8.841v241.4a8.852,8.852,0,0,0,8.841,8.846H602.806a8.855,8.855,0,0,0,8.841-8.846v-241.4a8.854,8.854,0,0,0-8.841-8.841Z" transform="translate(-203.57 -134.273)"/><g transform="translate(2.433 2.606)"><path class="d" d="M611.181,150.859v-6.9c0-5.021-4.439-9.093-9.918-9.093H214.039c-5.478,0-9.918,4.072-9.918,9.093v6.929Z" transform="translate(-205.239 -135.863)"/><path class="f" d="M291.624,138.556a2.3,2.3,0,1,1-2.3-2.3A2.3,2.3,0,0,1,291.624,138.556Z" transform="translate(79.109 -130.108)"/><circle class="f" cx="2.299" cy="2.299" r="2.299" transform="translate(375.329 6.149)"/><circle class="f" cx="2.299" cy="2.299" r="2.299" transform="translate(384.524 6.149)"/></g></g><rect class="g" width="335.304" height="181.245" transform="translate(114.415 71.991)"/><g transform="translate(2.305 308.146)"><path class="c" d="M245.167,198.743l-58.736,34.518h0l560.2-.246-54.1-34.126Z" transform="translate(-185.843 -197.586)"/><path class="d" d="M187.2,235.313h-.314l0-1.166-.583-.989L245.3,198.481h.318l447.7.146L751.1,235.065ZM245.935,200.8,191.143,233l551.946-.243-50.434-31.815Z" transform="translate(-186.298 -198.481)"/></g><g class="h" transform="translate(92.521 308.146)"><path class="c" d="M246.738,198.743,207.69,221.691h0l372.433-.163L544.155,198.84Z" transform="translate(-203.433 -197.586)"/><path class="i" d="M206.726,223.746l42.992-25.265,298.063.1,39.636,25Zm43.62-22.951-35.1,20.633,364.175-.159-32.3-20.377Z" transform="translate(-206.726 -198.481)"/></g><g transform="translate(193.168 123.197)"><path class="e" d="M267.726,180.914a3.473,3.473,0,0,1-3.476-3.471,13.894,13.894,0,1,0-27.787,0,3.473,3.473,0,0,1-6.947,0,20.84,20.84,0,1,1,41.681,0A3.472,3.472,0,0,1,267.726,180.914Z" transform="translate(-229.516 -156.602)"/><path class="e" d="M299.209,180.914a3.472,3.472,0,0,1-3.471-3.471,13.894,13.894,0,1,0-27.787,0,3.473,3.473,0,0,1-6.947,0,20.84,20.84,0,1,1,41.681,0A3.475,3.475,0,0,1,299.209,180.914Z" transform="translate(-121.944 -156.602)"/><path class="e" d="M294.849,226.478a58.357,58.357,0,0,1-58.021-56.749,4.675,4.675,0,0,1,4.668-4.761H352.883v3.476A58.1,58.1,0,0,1,294.849,226.478ZM243.88,171.915a51.089,51.089,0,0,0,101.941,0Z" transform="translate(-204.54 -128.021)"/></g></g><g transform="translate(692.701 176.896)"><g transform="translate(21.113)"><path class="j" d="M281.857,189.71v-39.8c0-21.207,15.616-38.457,34.809-38.457H344.8c19.189,0,34.8,17.25,34.8,38.457v39.8c0,21.2-15.616,38.453-34.8,38.453H316.666C297.473,228.163,281.857,210.913,281.857,189.71Zm34.809-60.136c-10.149,0-18.407,9.124-18.407,20.337v39.8c0,11.209,8.258,20.333,18.407,20.333H344.8c10.144,0,18.4-9.124,18.4-20.333v-39.8c0-11.213-8.258-20.337-18.4-20.337Z" transform="translate(-280.753 -110.35)"/><path class="f" d="M345.647,230.121H317.516c-19.8,0-35.909-17.745-35.909-39.557v-39.8c0-21.816,16.111-39.561,35.909-39.561h28.132c19.807,0,35.913,17.745,35.913,39.561v39.8C381.561,212.377,365.454,230.121,345.647,230.121ZM317.516,113.412c-18.584,0-33.7,16.755-33.7,37.353v39.8c0,20.593,15.117,37.348,33.7,37.348h28.132c18.584,0,33.7-16.755,33.7-37.348v-39.8c0-20.6-15.121-37.353-33.7-37.353ZM345.647,212H317.516c-10.754,0-19.507-9.619-19.507-21.437v-39.8c0-11.822,8.753-21.437,19.507-21.437h28.132c10.758,0,19.507,9.614,19.507,21.437v39.8C365.154,202.382,356.406,212,345.647,212Zm-28.132-80.465c-9.539,0-17.3,8.625-17.3,19.228v39.8c0,10.6,7.759,19.229,17.3,19.229h28.132c9.544,0,17.3-8.625,17.3-19.229v-39.8c0-10.6-7.755-19.228-17.3-19.228Z" transform="translate(-281.607 -111.204)"/></g><rect class="k" width="142.182" height="118.038" rx="3.75" transform="translate(0 65.831)"/><path class="d" d="M337.69,226.555H297.754a1.1,1.1,0,0,1,0-2.208H337.69a12.5,12.5,0,0,0,12.489-12.485V132.687a1.1,1.1,0,0,1,2.208,0v79.175A14.711,14.711,0,0,1,337.69,226.555Z" transform="translate(-209.103 -41.584)"/><rect class="l" width="122.733" height="91.396" rx="3.75" transform="translate(9.725 81.978)"/><path class="i" d="M289.165,150a16.6,16.6,0,1,1,21.406,15.81v21.472h-9.614V165.807A16.546,16.546,0,0,1,289.165,150Z" transform="translate(-234.673 -35.376)"/></g><path class="j" d="M821.619,214.449H178.8a1.853,1.853,0,0,1,0-3.705h642.82a1.853,1.853,0,0,1,0,3.705Z" transform="translate(74.666 405.748)"/><g transform="translate(807.828 220.224)"><path class="d" d="M356.376,149.992a26.741,26.741,0,1,1-26.74-26.741A26.741,26.741,0,0,1,356.376,149.992Z" transform="translate(-302.895 -113.377)"/><path class="d" d="M303.475,182.962a1.159,1.159,0,1,1,1.638-1.638,33.981,33.981,0,1,0,0-48.054,1.159,1.159,0,1,1-1.638-1.638,36.3,36.3,0,1,1,0,51.33Z" transform="translate(-302.066 -121.015)"/><g transform="translate(22.823 23.167)"><path class="f" d="M311.6,154.256a3.594,3.594,0,0,1-2.539-.932,2.974,2.974,0,0,1-1-2.261,2.863,2.863,0,0,1,1.011-2.266,3.694,3.694,0,0,1,2.526-.883,3.571,3.571,0,0,1,2.513.892,2.921,2.921,0,0,1,.98,2.257,2.993,2.993,0,0,1-.967,2.288A3.578,3.578,0,0,1,311.6,154.256Zm3.043-25.336-.548,13.867a2.552,2.552,0,0,1-2.552,2.455h0a2.553,2.553,0,0,1-2.553-2.46l-.521-13.867a2.558,2.558,0,0,1,2.553-2.654h1.069A2.553,2.553,0,0,1,314.643,128.92Z" transform="translate(-308.063 -126.261)"/></g></g></g></svg>