<svg xmlns="http://www.w3.org/2000/svg" width="49.353" height="34.252" viewBox="0 0 49.353 34.252"><defs><style>.a{fill:#c4c4c4;}.b{fill:#fff;}</style></defs><g transform="translate(0 0)"><rect class="a" width="49.353" height="18.534" rx="9.267" transform="translate(0 15.709)"/><circle class="a" cx="13.033" cy="13.033" r="13.033" transform="translate(7.551 10.314) rotate(-23.309)"/><g transform="translate(17.435 14.6)"><g transform="translate(3.595)"><path class="b" d="M238.119,109.054a.6.6,0,0,1-.42-1.027l3.5-3.438,3.442,3.442a.6.6,0,0,1-.848.848l-2.6-2.6-2.65,2.6A.6.6,0,0,1,238.119,109.054Z" transform="translate(-237.52 -104.589)"/><path class="b" d="M250.827,114.6a.6.6,0,0,1-.6-.6v-7.79a.6.6,0,0,1,1.2,0V114A.6.6,0,0,1,250.827,114.6Z" transform="translate(-247.179 -105.364)"/></g><path class="b" d="M235.44,138.754H224.016a1.487,1.487,0,0,1-1.485-1.485v-4.15a.6.6,0,0,1,1.2,0v4.15a.286.286,0,0,0,.286.286H235.44a.376.376,0,0,0,.376-.376v-4.061a.6.6,0,1,1,1.2,0v4.061A1.577,1.577,0,0,1,235.44,138.754Z" transform="translate(-222.531 -125.821)"/></g></g></svg>